#N canvas 333 25 521 461 12;
#X obj 177 422 dac~;
#X msg 61 233 enable 0;
#X msg 34 322 enable 1;
#X obj 125 364 nn~ bird-rave_e18d54798e_streaming.ts decode;
#X obj 201 72 netreceive -u -b;
#X msg 237 41 listen 0;
#X obj 201 102 oscparse;
#X obj 41 167 print osc-decoded;
#X listbox 41 138 20 0 0 0 - - - 0;
#X msg 142 40 listen 9001;
#X obj 235 135 list split 1;
#X symbolatom 197 168 10 0 0 0 - - - 0;
#X floatatom 227 259 5 0 0 0 - - - 0;
#X floatatom 276 259 5 0 0 0 - - - 0;
#X floatatom 323 260 5 0 0 0 - - - 0;
#X obj 228 233 float;
#X obj 276 233 float;
#X obj 323 233 float;
#X obj 228 201 select yaw pitch roll proximity;
#X obj 370 236 float;
#X floatatom 370 262 5 0 0 0 - - - 0;
#X connect 1 0 3 0;
#X connect 2 0 3 0;
#X connect 3 0 0 0;
#X connect 3 0 0 1;
#X connect 4 0 6 0;
#X connect 5 0 4 0;
#X connect 6 0 10 0;
#X connect 6 0 8 0;
#X connect 8 0 7 0;
#X connect 9 0 4 0;
#X connect 10 0 11 0;
#X connect 10 1 15 1;
#X connect 10 1 16 1;
#X connect 10 1 17 1;
#X connect 10 1 19 1;
#X connect 11 0 18 0;
#X connect 12 0 3 0;
#X connect 13 0 3 1;
#X connect 14 0 3 2;
#X connect 15 0 12 0;
#X connect 16 0 13 0;
#X connect 17 0 14 0;
#X connect 18 0 15 0;
#X connect 18 1 16 0;
#X connect 18 2 17 0;
#X connect 18 3 19 0;
#X connect 19 0 20 0;
#X connect 20 0 3 3;
